<svg width="640" height="640" version="1.1" xmlns="http://www.w3.org/2000/svg" desc="Created with imagetracer.js version 1.2.6" ><path fill="rgb(219,222,223)" stroke="rgb(219,222,223)" stroke-width="1" opacity="1" d="M 313.5 129 L 330 129.5 L 313.5 130 L 313.5 129 Z " /><path fill="rgb(219,222,223)" stroke="rgb(219,222,223)" stroke-width="1" opacity="1" d="M 304.5 130 L 307 130.5 L 304.5 131 L 304.5 130 Z " /><path fill="rgb(219,222,223)" stroke="rgb(219,222,223)" stroke-width="1" opacity="1" d="M 336.5 130 L 339 130.5 L 336.5 131 L 336.5 130 Z " /><path fill="rgb(219,222,223)" stroke="rgb(219,222,223)" stroke-width="1" opacity="1" d="M 298.5 131 L 301 131.5 L 298.5 132 L 298.5 131 Z " /><path fill="rgb(219,222,223)" stroke="rgb(219,222,223)" stroke-width="1" opacity="1" d="M 384.5 147 L 385.5 149 L 384.5 147 Z " /><path fill="rgb(219,222,223)" stroke="rgb(219,222,223)" stroke-width="1" opacity="1" d="M 387.5 149 L 388.5 151 L 387.5 149 Z " /><path fill="rgb(219,222,223)" stroke="rgb(219,222,223)" stroke-width="1" opacity="1" d="M 390.5 151 L 391.5 153 L 390.5 151 Z " /><path fill="rgb(219,222,223)" stroke="rgb(219,222,223)" stroke-width="1" opacity="1" d="M 251.5 152 L 250.5 154 L 251.5 152 Z " /><path fill="rgb(219,222,223)" stroke="rgb(219,222,223)" stroke-width="1" opacity="1" d="M 394.5 154 L 395.5 156 L 394.5 154 Z " /><path fill="rgb(219,222,223)" stroke="rgb(219,222,223)" stroke-width="1" opacity="1" d="M 247.5 155 L 246.5 157 L 247.5 155 Z " /><path fill="rgb(219,222,223)" stroke="rgb(219,222,223)" stroke-width="1" opacity="1" d="M 400.5 159 L 404.5 164 L 400.5 159 Z " /><path fill="rgb(219,222,223)" stroke="rgb(219,222,223)" stroke-width="1" opacity="1" d="M 241.5 160 L 231.5 171 L 241.5 160 Z " /><path fill="rgb(219,222,223)" stroke="rgb(219,222,223)" stroke-width="1" opacity="1" d="M 408.5 167 L 413.5 173 L 408.5 167 Z " /><path fill="rgb(219,222,223)" stroke="rgb(219,222,223)" stroke-width="1" opacity="1" d="M 227.5 175 L 226.5 177 L 227.5 175 Z " /><path fill="rgb(219,222,223)" stroke="rgb(219,222,223)" stroke-width="1" opacity="1" d="M 416.5 176 L 417.5 178 L 416.5 176 Z " /><path fill="rgb(219,222,223)" stroke="rgb(219,222,223)" stroke-width="1" opacity="1" d="M 224.5 179 L 223.5 181 L 224.5 179 Z " /><path fill="rgb(219,222,223)" stroke="rgb(219,222,223)" stroke-width="1" opacity="1" d="M 419.5 180 L 420.5 182 L 419.5 180 Z " /><path fill="rgb(219,222,223)" stroke="rgb(219,222,223)" stroke-width="1" opacity="1" d="M 221.5 183 L 220.5 185 L 221.5 183 Z " /><path fill="rgb(219,222,223)" stroke="rgb(219,222,223)" stroke-width="1" opacity="1" d="M 219.5 186 L 218.5 188 L 219.5 186 Z " /><path fill="rgb(219,222,223)" stroke="rgb(219,222,223)" stroke-width="1" opacity="1" d="M 444.5 237 L 445 239.5 L 444 239.5 L 444.5 237 Z " /><path fill="rgb(219,222,223)" stroke="rgb(219,222,223)" stroke-width="1" opacity="1" d="M 198.5 238 L 199 240.5 L 198 240.5 L 198.5 238 Z " /><path fill="rgb(219,222,223)" stroke="rgb(219,222,223)" stroke-width="1" opacity="1" d="M 445.5 243 L 446 245.5 L 445 245.5 L 445.5 243 Z " /><path fill="rgb(219,222,223)" stroke="rgb(219,222,223)" stroke-width="1" opacity="1" d="M 197.5 244 L 198 247.5 L 197 247.5 L 197.5 244 Z " /><path fill="rgb(219,222,223)" stroke="rgb(219,222,223)" stroke-width="1" opacity="1" d="M 446.5 251 L 447 256.5 L 446 256.5 L 446.5 251 Z " /><path fill="rgb(219,222,223)" stroke="rgb(219,222,223)" stroke-width="1" opacity="1" d="M 196.5 254 L 197 274.5 L 196 274.5 L 196.5 254 Z " /><path fill="rgb(219,222,223)" stroke="rgb(219,222,223)" stroke-width="1" opacity="1" d="M 446.5 272 L 447 277.5 L 446 277.5 L 446.5 272 Z " /><path fill="rgb(219,222,223)" stroke="rgb(219,222,223)" stroke-width="1" opacity="1" d="M 197.5 281 L 198 284.5 L 197 284.5 L 197.5 281 Z " /><path fill="rgb(219,222,223)" stroke="rgb(219,222,223)" stroke-width="1" opacity="1" d="M 445.5 283 L 446 285.5 L 445 285.5 L 445.5 283 Z " /><path fill="rgb(219,222,223)" stroke="rgb(219,222,223)" stroke-width="1" opacity="1" d="M 198.5 288 L 199 290.5 L 198 290.5 L 198.5 288 Z " /><path fill="rgb(219,222,223)" stroke="rgb(219,222,223)" stroke-width="1" opacity="1" d="M 428.5 335 L 427.5 337 L 428.5 335 Z " /><path fill="rgb(219,222,223)" stroke="rgb(219,222,223)" stroke-width="1" opacity="1" d="M 216.5 338 L 217.5 340 L 216.5 338 Z " /><path fill="rgb(219,222,223)" stroke="rgb(219,222,223)" stroke-width="1" opacity="1" d="M 425.5 340 L 424.5 342 L 425.5 340 Z " /><path fill="rgb(219,222,223)" stroke="rgb(219,222,223)" stroke-width="1" opacity="1" d="M 423.5 343 L 422.5 345 L 423.5 343 Z " /><path fill="rgb(219,222,223)" stroke="rgb(219,222,223)" stroke-width="1" opacity="1" d="M 421.5 346 L 420.5 348 L 421.5 346 Z " /><path fill="rgb(219,222,223)" stroke="rgb(219,222,223)" stroke-width="1" opacity="1" d="M 222.5 347 L 223.5 349 L 222.5 347 Z " /><path fill="rgb(219,222,223)" stroke="rgb(219,222,223)" stroke-width="1" opacity="1" d="M 418.5 350 L 417.5 352 L 418.5 350 Z " /><path fill="rgb(219,222,223)" stroke="rgb(219,222,223)" stroke-width="1" opacity="1" d="M 225.5 351 L 226.5 353 L 225.5 351 Z " /><path fill="rgb(219,222,223)" stroke="rgb(219,222,223)" stroke-width="1" opacity="1" d="M 414.5 355 L 411.5 359 L 414.5 355 Z " /><path fill="rgb(219,222,223)" stroke="rgb(219,222,223)" stroke-width="1" opacity="1" d="M 230.5 357 L 235.5 363 L 230.5 357 Z " /><path fill="rgb(219,222,223)" stroke="rgb(219,222,223)" stroke-width="1" opacity="1" d="M 238.5 365 L 243.5 371 L 238.5 365 Z " /><path fill="rgb(219,222,223)" stroke="rgb(219,222,223)" stroke-width="1" opacity="1" d="M 400.5 369 L 398.5 372 L 400.5 369 Z " /><path fill="rgb(219,222,223)" stroke="rgb(219,222,223)" stroke-width="1" opacity="1" d="M 247.5 373 L 248.5 375 L 247.5 373 Z " /><path fill="rgb(219,222,223)" stroke="rgb(219,222,223)" stroke-width="1" opacity="1" d="M 394.5 374 L 393.5 376 L 394.5 374 Z " /><path fill="rgb(219,222,223)" stroke="rgb(219,222,223)" stroke-width="1" opacity="1" d="M 251.5 376 L 252.5 378 L 251.5 376 Z " /><path fill="rgb(219,222,223)" stroke="rgb(219,222,223)" stroke-width="1" opacity="1" d="M 387.5 379 L 386.5 381 L 387.5 379 Z " /><path fill="rgb(219,222,223)" stroke="rgb(219,222,223)" stroke-width="1" opacity="1" d="M 297.5 397 L 300 397.5 L 297.5 398 L 297.5 397 Z " /><path fill="rgb(219,222,223)" stroke="rgb(219,222,223)" stroke-width="1" opacity="1" d="M 303.5 398 L 306 398.5 L 303.5 399 L 303.5 398 Z " /><path fill="rgb(219,222,223)" stroke="rgb(219,222,223)" stroke-width="1" opacity="1" d="M 338.5 398 L 341 398.5 L 338.5 399 L 338.5 398 Z " /><path fill="rgb(219,222,223)" stroke="rgb(219,222,223)" stroke-width="1" opacity="1" d="M 310.5 399 L 317 399.5 L 310.5 400 L 310.5 399 Z " /><path fill="rgb(219,222,223)" stroke="rgb(219,222,223)" stroke-width="1" opacity="1" d="M 326.5 399 L 333 399.5 L 326.5 400 L 326.5 399 Z " /><path fill="rgb(219,222,223)" stroke="rgb(219,222,223)" stroke-width="1" opacity="1" d="M 296.5 407 L 304 407.5 L 296.5 408 L 296.5 407 Z " /><path fill="rgb(219,222,223)" stroke="rgb(219,222,223)" stroke-width="1" opacity="1" d="M 337.5 407 L 346 407.5 L 337.5 408 L 337.5 407 Z " /><path fill="rgb(219,222,223)" stroke="rgb(219,222,223)" stroke-width="1" opacity="1" d="M 285.5 408 L 290 408.5 L 285.5 409 L 285.5 408 Z " /><path fill="rgb(219,222,223)" stroke="rgb(219,222,223)" stroke-width="1" opacity="1" d="M 352.5 408 L 357 408.5 L 352.5 409 L 352.5 408 Z " /><path fill="rgb(219,222,223)" stroke="rgb(219,222,223)" stroke-width="1" opacity="1" d="M 276.5 409 L 280 409.5 L 276.5 410 L 276.5 409 Z " /><path fill="rgb(219,222,223)" stroke="rgb(219,222,223)" stroke-width="1" opacity="1" d="M 362.5 409 L 365 409.5 L 362.5 410 L 362.5 409 Z " /><path fill="rgb(219,222,223)" stroke="rgb(219,222,223)" stroke-width="1" opacity="1" d="M 269.5 410 L 272 410.5 L 269.5 411 L 269.5 410 Z " /><path fill="rgb(219,222,223)" stroke="rgb(219,222,223)" stroke-width="1" opacity="1" d="M 263.5 411 L 266 411.5 L 263.5 412 L 263.5 411 Z " /><path fill="rgb(219,222,223)" stroke="rgb(219,222,223)" stroke-width="1" opacity="1" d="M 257.5 412 L 260 412.5 L 257.5 413 L 257.5 412 Z " /><path fill="rgb(219,222,223)" stroke="rgb(219,222,223)" stroke-width="1" opacity="1" d="M 487.5 452 L 488.5 454 L 487.5 452 Z " /><path fill="rgb(219,222,223)" stroke="rgb(219,222,223)" stroke-width="1" opacity="1" d="M 490.5 454 L 491.5 456 L 490.5 454 Z " /><path fill="rgb(219,222,223)" stroke="rgb(219,222,223)" stroke-width="1" opacity="1" d="M 493.5 456 L 494.5 458 L 493.5 456 Z " /><path fill="rgb(219,222,223)" stroke="rgb(219,222,223)" stroke-width="1" opacity="1" d="M 146.5 457 L 145.5 459 L 146.5 457 Z " /><path fill="rgb(219,222,223)" stroke="rgb(219,222,223)" stroke-width="1" opacity="1" d="M 500.5 461 L 501.5 463 L 500.5 461 Z " /><path fill="rgb(219,222,223)" stroke="rgb(219,222,223)" stroke-width="1" opacity="1" d="M 139.5 462 L 138.5 464 L 139.5 462 Z " /><path fill="rgb(219,222,223)" stroke="rgb(219,222,223)" stroke-width="1" opacity="1" d="M 504.5 464 L 505.5 466 L 504.5 464 Z " /><path fill="rgb(219,222,223)" stroke="rgb(219,222,223)" stroke-width="1" opacity="1" d="M 134.5 466 L 133.5 468 L 134.5 466 Z " /><path fill="rgb(219,222,223)" stroke="rgb(219,222,223)" stroke-width="1" opacity="1" d="M 509.5 468 L 511.5 471 L 509.5 468 Z " /><path fill="rgb(219,222,223)" stroke="rgb(219,222,223)" stroke-width="1" opacity="1" d="M 129.5 470 L 127.5 473 L 129.5 470 Z " /><path fill="rgb(219,222,223)" stroke="rgb(219,222,223)" stroke-width="1" opacity="1" d="M 516.5 474 L 522.5 481 L 516.5 474 Z " /><path fill="rgb(219,222,223)" stroke="rgb(219,222,223)" stroke-width="1" opacity="1" d="M 120.5 478 L 113.5 486 L 120.5 478 Z " /><path fill="rgb(219,222,223)" stroke="rgb(219,222,223)" stroke-width="1" opacity="1" d="M 527.5 485 L 532.5 491 L 527.5 485 Z " /><path fill="rgb(219,222,223)" stroke="rgb(219,222,223)" stroke-width="1" opacity="1" d="M 107.5 492 L 105.5 495 L 107.5 492 Z " /><path fill="rgb(219,222,223)" stroke="rgb(219,222,223)" stroke-width="1" opacity="1" d="M 536.5 495 L 538.5 498 L 536.5 495 Z " /><path fill="rgb(219,222,223)" stroke="rgb(219,222,223)" stroke-width="1" opacity="1" d="M 102.5 498 L 101.5 500 L 102.5 498 Z " /><path fill="rgb(219,222,223)" stroke="rgb(219,222,223)" stroke-width="1" opacity="1" d="M 540.5 500 L 541.5 502 L 540.5 500 Z " /><path fill="rgb(219,222,223)" stroke="rgb(219,222,223)" stroke-width="1" opacity="1" d="M 99.5 502 L 98.5 504 L 99.5 502 Z " /><path fill="rgb(219,222,223)" stroke="rgb(219,222,223)" stroke-width="1" opacity="1" d="M 543.5 504 L 544.5 506 L 543.5 504 Z " /><path fill="rgb(219,222,223)" stroke="rgb(219,222,223)" stroke-width="1" opacity="1" d="M 96.5 506 L 95.5 508 L 96.5 506 Z " /><path fill="rgb(219,222,223)" stroke="rgb(219,222,223)" stroke-width="1" opacity="1" d="M 94.5 509 L 93.5 511 L 94.5 509 Z " /><path fill="rgb(219,222,223)" stroke="rgb(219,222,223)" stroke-width="1" opacity="1" d="M 92.5 512 L 91.5 514 L 92.5 512 Z " /><path fill="rgb(219,222,223)" stroke="rgb(219,222,223)" stroke-width="1" opacity="1" d="M 570.5 566 L 571 568.5 L 570 568.5 L 570.5 566 Z " /><path fill="rgb(219,222,223)" stroke="rgb(219,222,223)" stroke-width="1" opacity="1" d="M 70.5 568 L 71 570.5 L 70 570.5 L 70.5 568 Z " /><path fill="rgb(219,222,223)" stroke="rgb(219,222,223)" stroke-width="1" opacity="1" d="M 571.5 572 L 572 576.5 L 571 576.5 L 571.5 572 Z " /><path fill="rgb(219,222,223)" stroke="rgb(219,222,223)" stroke-width="1" opacity="1" d="M 69.5 577 L 70 580 L 572 580.5 L 69 581 L 69.5 577 Z " /><path fill="rgb(228,230,231)" stroke="rgb(228,230,231)" stroke-width="1" opacity="1" d="M 0 0 L 640 0 L 640 640 L 0 640 L 0 0 Z M 314 129 L 291 133 L 274 139 Q 256 148 242 160 Q 219 179 207 209 L 199 234 L 197 245 L 197 254 L 196 255 L 197 285 L 201 304 Q 210 336 230 358 Q 244 374 264 385 L 290 396 L 311 400 L 333 400 L 354 396 Q 380 388 399 372 Q 417 357 429 336 Q 437 322 442 305 L 447 278 L 447 252 L 442 225 Q 433 194 414 173 Q 396 151 370 139 L 345 131 L 331 130 L 330 129 L 314 129 Z M 297 407 L 296 408 L 286 408 L 285 409 L 270 410 L 248 414 Q 217 421 192 432 Q 151 450 121 478 Q 102 496 88 519 L 75 548 L 69 578 L 70 581 L 572 581 L 572 573 L 569 557 L 562 536 Q 551 510 533 491 Q 513 468 488 452 L 457 435 L 427 423 L 394 414 L 365 409 L 358 409 L 357 408 L 347 408 L 346 407 L 297 407 Z " /><path fill="rgb(167,174,177)" stroke="rgb(167,174,177)" stroke-width="1" opacity="1" d="M 312.5 130 L 331 130.5 L 312.5 131 L 312.5 130 Z " /><path fill="rgb(167,174,177)" stroke="rgb(167,174,177)" stroke-width="1" opacity="1" d="M 304.5 131 L 310 131.5 L 304.5 132 L 304.5 131 Z " /><path fill="rgb(167,174,177)" stroke="rgb(167,174,177)" stroke-width="1" opacity="1" d="M 333.5 131 L 340 131.5 L 333.5 132 L 333.5 131 Z " /><path fill="rgb(167,174,177)" stroke="rgb(167,174,177)" stroke-width="1" opacity="1" d="M 298.5 132 L 302 132.5 L 298.5 133 L 298.5 132 Z " /><path fill="rgb(167,174,177)" stroke="rgb(167,174,177)" stroke-width="1" opacity="1" d="M 341.5 132 L 345 132.5 L 341.5 133 L 341.5 132 Z " /><path fill="rgb(167,174,177)" stroke="rgb(167,174,177)" stroke-width="1" opacity="1" d="M 294.5 133 L 297 133.5 L 294.5 134 L 294.5 133 Z " /><path fill="rgb(167,174,177)" stroke="rgb(167,174,177)" stroke-width="1" opacity="1" d="M 346.5 133 L 349 133.5 L 346.5 134 L 346.5 133 Z " /><path fill="rgb(167,174,177)" stroke="rgb(167,174,177)" stroke-width="1" opacity="1" d="M 290.5 134 L 293 134.5 L 290.5 135 L 290.5 134 Z " /><path fill="rgb(167,174,177)" stroke="rgb(167,174,177)" stroke-width="1" opacity="1" d="M 350.5 134 L 353 134.5 L 350.5 135 L 350.5 134 Z " /><path fill="rgb(167,174,177)" stroke="rgb(167,174,177)" stroke-width="1" opacity="1" d="M 354.5 135 L 362 137.5 L 360.5 138 L 354.5 136 L 354.5 135 Z " /><path fill="rgb(167,174,177)" stroke="rgb(167,174,177)" stroke-width="1" opacity="1" d="M 283.5 136 L 286 136.5 L 281.5 138 L 281.5 137 L 283.5 136 Z " /><path fill="rgb(167,174,177)" stroke="rgb(167,174,177)" stroke-width="1" opacity="1" d="M 278.5 138 L 280 138.5 L 276.5 140 L 276.5 139 L 278.5 138 Z " /><path fill="rgb(167,174,177)" stroke="rgb(167,174,177)" stroke-width="1" opacity="1" d="M 273.5 140 L 275 140.5 L 264.5 146 L 265.5 144 L 273.5 140 Z " /><path fill="rgb(167,174,177)" stroke="rgb(167,174,177)" stroke-width="1" opacity="1" d="M 368.5 140 L 381 146.5 L 379.5 146 L 368.5 141 L 368.5 140 Z " /><path fill="rgb(167,174,177)" stroke="rgb(167,174,177)" stroke-width="1" opacity="1" d="M 262.5 146 L 261.5 148 L 259.5 149 L 260.5 147 L 262.5 146 Z " /><path fill="rgb(167,174,177)" stroke="rgb(167,174,177)" stroke-width="1" opacity="1" d="M 382.5 147 L 399 159.5 L 394.5 156 L 383.5 149 L 382.5 147 Z " /><path fill="rgb(167,174,177)" stroke="rgb(167,174,177)" stroke-width="1" opacity="1" d="M 257.5 149 L 256.5 151 L 257.5 149 Z " /><path fill="rgb(167,174,177)" stroke="rgb(167,174,177)" stroke-width="1" opacity="1" d="M 254.5 151 L 253.5 153 L 254.5 151 Z " /><path fill="rgb(167,174,177)" stroke="rgb(167,174,177)" stroke-width="1" opacity="1" d="M 251.5 153 L 249.5 156 L 251.5 153 Z " /><path fill="rgb(167,174,177)" stroke="rgb(167,174,177)" stroke-width="1" opacity="1" d="M 247.5 156 L 242.5 162 L 233 170.5 L 224.5 181 L 227 177.5 L 241.5 161 L 247.5 156 Z " /><path fill="rgb(167,174,177)" stroke="rgb(167,174,177)" stroke-width="1" opacity="1" d="M 400.5 160 L 417 177.5 L 412 173.5 L 400.5 160 Z " /><path fill="rgb(167,174,177)" stroke="rgb(167,174,177)" stroke-width="1" opacity="1" d="M 417.5 179 L 422 184.5 L 419 182.5 L 417.5 179 Z " /><path fill="rgb(167,174,177)" stroke="rgb(167,174,177)" stroke-width="1" opacity="1" d="M 223.5 182 L 222 184.5 L 218.5 190 L 219 188.5 L 223.5 182 Z " /><path fill="rgb(167,174,177)" stroke="rgb(167,174,177)" stroke-width="1" opacity="1" d="M 422.5 186 L 423.5 188 L 422.5 186 Z " /><path fill="rgb(167,174,177)" stroke="rgb(167,174,177)" stroke-width="1" opacity="1" d="M 424.5 189 L 427 192.5 L 425 191.5 L 424.5 189 Z " /><path fill="rgb(167,174,177)" stroke="rgb(167,174,177)" stroke-width="1" opacity="1" d="M 217.5 191 L 217 192.5 L 214.5 197 L 215 195.5 L 217.5 191 Z " /><path fill="rgb(167,174,177)" stroke="rgb(167,174,177)" stroke-width="1" opacity="1" d="M 427.5 194 L 434 206.5 L 433 206.5 L 427.5 194 Z " /><path fill="rgb(167,174,177)" stroke="rgb(167,174,177)" stroke-width="1" opacity="1" d="M 209.5 206 L 210 207.5 L 208.5 210 L 208 208.5 L 209.5 206 Z " /><path fill="rgb(167,174,177)" stroke="rgb(167,174,177)" stroke-width="1" opacity="1" d="M 434.5 208 L 438 216.5 L 437 216.5 L 434.5 208 Z " /><path fill="rgb(167,174,177)" stroke="rgb(167,174,177)" stroke-width="1" opacity="1" d="M 207.5 211 L 208 212.5 L 206.5 215 L 206 213.5 L 207.5 211 Z " /><path fill="rgb(167,174,177)" stroke="rgb(167,174,177)" stroke-width="1" opacity="1" d="M 438.5 218 L 441 226.5 L 440 226.5 L 438.5 218 Z " /><path fill="rgb(167,174,177)" stroke="rgb(167,174,177)" stroke-width="1" opacity="1" d="M 202.5 225 L 203 227.5 L 202 227.5 L 202.5 225 Z " /><path fill="rgb(167,174,177)" stroke="rgb(167,174,177)" stroke-width="1" opacity="1" d="M 441.5 228 L 442 230.5 L 441 230.5 L 441.5 228 Z " /><path fill="rgb(167,174,177)" stroke="rgb(167,174,177)" stroke-width="1" opacity="1" d="M 201.5 229 L 202 231.5 L 201 231.5 L 201.5 229 Z " /><path fill="rgb(167,174,177)" stroke="rgb(167,174,177)" stroke-width="1" opacity="1" d="M 442.5 232 L 443 235.5 L 442 235.5 L 442.5 232 Z " /><path fill="rgb(167,174,177)" stroke="rgb(167,174,177)" stroke-width="1" opacity="1" d="M 200.5 233 L 201 236.5 L 200 236.5 L 200.5 233 Z " /><path fill="rgb(167,174,177)" stroke="rgb(167,174,177)" stroke-width="1" opacity="1" d="M 443.5 237 L 444 240.5 L 443 240.5 L 443.5 237 Z " /><path fill="rgb(167,174,177)" stroke="rgb(167,174,177)" stroke-width="1" opacity="1" d="M 199.5 238 L 200 242.5 L 199 242.5 L 199.5 238 Z " /><path fill="rgb(167,174,177)" stroke="rgb(167,174,177)" stroke-width="1" opacity="1" d="M 444.5 243 L 445 248.5 L 444 248.5 L 444.5 243 Z " /><path fill="rgb(167,174,177)" stroke="rgb(167,174,177)" stroke-width="1" opacity="1" d="M 198.5 244 L 199 250.5 L 198 250.5 L 198.5 244 Z " /><path fill="rgb(167,174,177)" stroke="rgb(167,174,177)" stroke-width="1" opacity="1" d="M 445.5 251 L 446 278.5 L 445 278.5 L 445.5 251 Z " /><path fill="rgb(167,174,177)" stroke="rgb(167,174,177)" stroke-width="1" opacity="1" d="M 197.5 254 L 198 275.5 L 197 275.5 L 197.5 254 Z " /><path fill="rgb(167,174,177)" stroke="rgb(167,174,177)" stroke-width="1" opacity="1" d="M 198.5 278 L 199 284.5 L 198 284.5 L 198.5 278 Z " /><path fill="rgb(167,174,177)" stroke="rgb(167,174,177)" stroke-width="1" opacity="1" d="M 444.5 280 L 445 286.5 L 444 286.5 L 444.5 280 Z " /><path fill="rgb(167,174,177)" stroke="rgb(167,174,177)" stroke-width="1" opacity="1" d="M 199.5 286 L 200 290.5 L 199 290.5 L 199.5 286 Z " /><path fill="rgb(167,174,177)" stroke="rgb(167,174,177)" stroke-width="1" opacity="1" d="M 443.5 288 L 444 291.5 L 443 291.5 L 443.5 288 Z " /><path fill="rgb(167,174,177)" stroke="rgb(167,174,177)" stroke-width="1" opacity="1" d="M 200.5 292 L 201 295.5 L 200 295.5 L 200.5 292 Z " /><path fill="rgb(167,174,177)" stroke="rgb(167,174,177)" stroke-width="1" opacity="1" d="M 442.5 293 L 443 296.5 L 442 296.5 L 442.5 293 Z " /><path fill="rgb(167,174,177)" stroke="rgb(167,174,177)" stroke-width="1" opacity="1" d="M 201.5 297 L 202 299.5 L 201 299.5 L 201.5 297 Z " /><path fill="rgb(167,174,177)" stroke="rgb(167,174,177)" stroke-width="1" opacity="1" d="M 441.5 298 L 442 300.5 L 441 300.5 L 441.5 298 Z " /><path fill="rgb(167,174,177)" stroke="rgb(167,174,177)" stroke-width="1" opacity="1" d="M 202.5 301 L 203 303.5 L 202 303.5 L 202.5 301 Z " /><path fill="rgb(167,174,177)" stroke="rgb(167,174,177)" stroke-width="1" opacity="1" d="M 440.5 302 L 441 304.5 L 439.5 308 L 439 305.5 L 440.5 302 Z " /><path fill="rgb(167,174,177)" stroke="rgb(167,174,177)" stroke-width="1" opacity="1" d="M 204.5 308 L 206 312.5 L 205 312.5 L 204.5 308 Z " /><path fill="rgb(167,174,177)" stroke="rgb(167,174,177)" stroke-width="1" opacity="1" d="M 437.5 312 L 438 313.5 L 435.5 319 L 435 317.5 L 437.5 312 Z " /><path fill="rgb(167,174,177)" stroke="rgb(167,174,177)" stroke-width="1" opacity="1" d="M 207.5 317 L 210 322.5 L 209 322.5 L 207.5 317 Z " /><path fill="rgb(167,174,177)" stroke="rgb(167,174,177)" stroke-width="1" opacity="1" d="M 434.5 320 L 435 321.5 L 426.5 337 L 427 335.5 L 434.5 320 Z " /><path fill="rgb(167,174,177)" stroke="rgb(167,174,177)" stroke-width="1" opacity="1" d="M 210.5 324 L 215 332.5 L 213 331.5 L 210.5 324 Z " /><path fill="rgb(167,174,177)" stroke="rgb(167,174,177)" stroke-width="1" opacity="1" d="M 215.5 334 L 221 342.5 L 219 341.5 L 215.5 334 Z " /><path fill="rgb(167,174,177)" stroke="rgb(167,174,177)" stroke-width="1" opacity="1" d="M 425.5 338 L 425 339.5 Q 414.4 357.9 398.5 371 L 390.5 377 L 392.5 374 Q 404.7 366.7 413 355.5 L 425.5 338 Z " /><path fill="rgb(167,174,177)" stroke="rgb(167,174,177)" stroke-width="1" opacity="1" d="M 221.5 344 Q 230.8 357.7 243 368.5 L 231 357.5 L 221.5 344 Z " /><path fill="rgb(167,174,177)" stroke="rgb(167,174,177)" stroke-width="1" opacity="1" d="M 244.5 369 L 256 378.5 L 253.5 377 Q 247 374.1 244.5 369 Z " /><path fill="rgb(167,174,177)" stroke="rgb(167,174,177)" stroke-width="1" opacity="1" d="M 388.5 377 L 386.5 380 L 384.5 381 L 385.5 379 L 388.5 377 Z " /><path fill="rgb(167,174,177)" stroke="rgb(167,174,177)" stroke-width="1" opacity="1" d="M 257.5 379 L 268 385.5 L 266.5 385 L 258.5 381 L 257.5 379 Z " /><path fill="rgb(167,174,177)" stroke="rgb(167,174,177)" stroke-width="1" opacity="1" d="M 382.5 381 L 381.5 383 L 377.5 385 L 378.5 383 L 382.5 381 Z " /><path fill="rgb(167,174,177)" stroke="rgb(167,174,177)" stroke-width="1" opacity="1" d="M 269.5 386 L 277 389.5 L 275.5 390 L 269.5 387 L 269.5 386 Z " /><path fill="rgb(167,174,177)" stroke="rgb(167,174,177)" stroke-width="1" opacity="1" d="M 368.5 388 L 370 388.5 L 361.5 392 L 361.5 391 L 368.5 388 Z " /><path fill="rgb(167,174,177)" stroke="rgb(167,174,177)" stroke-width="1" opacity="1" d="M 278.5 390 L 282 391.5 L 280.5 392 L 278.5 390 Z " /><path fill="rgb(167,174,177)" stroke="rgb(167,174,177)" stroke-width="1" opacity="1" d="M 286.5 393 L 292 394.5 L 289.5 395 L 286.5 394 L 286.5 393 Z " /><path fill="rgb(167,174,177)" stroke="rgb(167,174,177)" stroke-width="1" opacity="1" d="M 351.5 394 L 354 394.5 L 351.5 395 L 351.5 394 Z " /><path fill="rgb(167,174,177)" stroke="rgb(167,174,177)" stroke-width="1" opacity="1" d="M 293.5 395 L 296 395.5 L 293.5 396 L 293.5 395 Z " /><path fill="rgb(167,174,177)" stroke="rgb(167,174,177)" stroke-width="1" opacity="1" d="M 347.5 395 L 350 395.5 L 347.5 396 L 347.5 395 Z " /><path fill="rgb(167,174,177)" stroke="rgb(167,174,177)" stroke-width="1" opacity="1" d="M 297.5 396 L 301 396.5 L 297.5 397 L 297.5 396 Z " /><path fill="rgb(167,174,177)" stroke="rgb(167,174,177)" stroke-width="1" opacity="1" d="M 342.5 396 L 346 396.5 L 342.5 397 L 342.5 396 Z " /><path fill="rgb(167,174,177)" stroke="rgb(167,174,177)" stroke-width="1" opacity="1" d="M 302.5 397 L 308 397.5 L 302.5 398 L 302.5 397 Z " /><path fill="rgb(167,174,177)" stroke="rgb(167,174,177)" stroke-width="1" opacity="1" d="M 335.5 397 L 341 397.5 L 335.5 398 L 335.5 397 Z " /><path fill="rgb(167,174,177)" stroke="rgb(167,174,177)" stroke-width="1" opacity="1" d="M 310.5 398 L 333 398.5 L 310.5 399 L 310.5 398 Z " /><path fill="rgb(167,174,177)" stroke="rgb(167,174,177)" stroke-width="1" opacity="1" d="M 295.5 408 L 314 408.5 L 295.5 409 L 295.5 408 Z " /><path fill="rgb(167,174,177)" stroke="rgb(167,174,177)" stroke-width="1" opacity="1" d="M 328.5 408 L 346 408.5 L 328.5 409 L 328.5 408 Z " /><path fill="rgb(167,174,177)" stroke="rgb(167,174,177)" stroke-width="1" opacity="1" d="M 284.5 409 L 293 409.5 L 284.5 410 L 284.5 409 Z " /><path fill="rgb(167,174,177)" stroke="rgb(167,174,177)" stroke-width="1" opacity="1" d="M 348.5 409 L 357 409.5 L 348.5 410 L 348.5 409 Z " /><path fill="rgb(167,174,177)" stroke="rgb(167,174,177)" stroke-width="1" opacity="1" d="M 276.5 410 L 282 410.5 L 276.5 411 L 276.5 410 Z " /><path fill="rgb(167,174,177)" stroke="rgb(167,174,177)" stroke-width="1" opacity="1" d="M 359.5 410 L 365 410.5 L 359.5 411 L 359.5 410 Z " /><path fill="rgb(167,174,177)" stroke="rgb(167,174,177)" stroke-width="1" opacity="1" d="M 269.5 411 L 274 411.5 L 269.5 412 L 269.5 411 Z " /><path fill="rgb(167,174,177)" stroke="rgb(167,174,177)" stroke-width="1" opacity="1" d="M 367.5 411 L 373 411.5 L 367.5 412 L 367.5 411 Z " /><path fill="rgb(167,174,177)" stroke="rgb(167,174,177)" stroke-width="1" opacity="1" d="M 263.5 412 L 268 412.5 L 263.5 413 L 263.5 412 Z " /><path fill="rgb(167,174,177)" stroke="rgb(167,174,177)" stroke-width="1" opacity="1" d="M 374.5 412 L 379 412.5 L 374.5 413 L 374.5 412 Z " /><path fill="rgb(167,174,177)" stroke="rgb(167,174,177)" stroke-width="1" opacity="1" d="M 257.5 413 L 261 413.5 L 257.5 414 L 257.5 413 Z " /><path fill="rgb(167,174,177)" stroke="rgb(167,174,177)" stroke-width="1" opacity="1" d="M 380.5 413 L 384 413.5 L 380.5 414 L 380.5 413 Z " /><path fill="rgb(167,174,177)" stroke="rgb(167,174,177)" stroke-width="1" opacity="1" d="M 252.5 414 L 256 414.5 L 252.5 415 L 252.5 414 Z " /><path fill="rgb(167,174,177)" stroke="rgb(167,174,177)" stroke-width="1" opacity="1" d="M 385.5 414 L 389 414.5 L 385.5 415 L 385.5 414 Z " /><path fill="rgb(167,174,177)" stroke="rgb(167,174,177)" stroke-width="1" opacity="1" d="M 247.5 415 L 251 415.5 L 247.5 416 L 247.5 415 Z " /><path fill="rgb(167,174,177)" stroke="rgb(167,174,177)" stroke-width="1" opacity="1" d="M 390.5 415 L 394 415.5 L 390.5 416 L 390.5 415 Z " /><path fill="rgb(167,174,177)" stroke="rgb(167,174,177)" stroke-width="1" opacity="1" d="M 243.5 416 L 246 416.5 L 243.5 417 L 243.5 416 Z " /><path fill="rgb(167,174,177)" stroke="rgb(167,174,177)" stroke-width="1" opacity="1" d="M 395.5 416 L 398 416.5 L 395.5 417 L 395.5 416 Z " /><path fill="rgb(167,174,177)" stroke="rgb(167,174,177)" stroke-width="1" opacity="1" d="M 239.5 417 L 242 417.5 L 239.5 418 L 239.5 417 Z " /><path fill="rgb(167,174,177)" stroke="rgb(167,174,177)" stroke-width="1" opacity="1" d="M 399.5 417 L 410 419.5 L 407.5 420 L 399.5 418 L 399.5 417 Z " /><path fill="rgb(167,174,177)" stroke="rgb(167,174,177)" stroke-width="1" opacity="1" d="M 235.5 418 L 238 418.5 L 235.5 419 L 235.5 418 Z " /><path fill="rgb(167,174,177)" stroke="rgb(167,174,177)" stroke-width="1" opacity="1" d="M 231.5 419 L 234 419.5 L 228.5 421 L 228.5 420 L 231.5 419 Z " /><path fill="rgb(167,174,177)" stroke="rgb(167,174,177)" stroke-width="1" opacity="1" d="M 411.5 420 L 417 421.5 L 414.5 422 L 411.5 421 L 411.5 420 Z " /><path fill="rgb(167,174,177)" stroke="rgb(167,174,177)" stroke-width="1" opacity="1" d="M 224.5 421 L 227 421.5 L 221.5 423 L 221.5 422 L 224.5 421 Z " /><path fill="rgb(167,174,177)" stroke="rgb(167,174,177)" stroke-width="1" opacity="1" d="M 421.5 423 L 432 426.5 L 430.5 427 L 421.5 424 L 421.5 423 Z " /><path fill="rgb(167,174,177)" stroke="rgb(167,174,177)" stroke-width="1" opacity="1" d="M 209.5 426 L 211 426.5 L 204.5 429 L 204.5 428 L 209.5 426 Z " /><path fill="rgb(167,174,177)" stroke="rgb(167,174,177)" stroke-width="1" opacity="1" d="M 436.5 428 L 440 429.5 L 438.5 430 L 436.5 428 Z " /><path fill="rgb(167,174,177)" stroke="rgb(167,174,177)" stroke-width="1" opacity="1" d="M 201.5 429 L 203 429.5 L 199.5 431 L 199.5 430 L 201.5 429 Z " /><path fill="rgb(167,174,177)" stroke="rgb(167,174,177)" stroke-width="1" opacity="1" d="M 441.5 430 L 445 431.5 L 443.5 432 L 441.5 430 Z " /><path fill="rgb(167,174,177)" stroke="rgb(167,174,177)" stroke-width="1" opacity="1" d="M 196.5 431 L 198 431.5 L 194.5 433 L 194.5 432 L 196.5 431 Z " /><path fill="rgb(167,174,177)" stroke="rgb(167,174,177)" stroke-width="1" opacity="1" d="M 446.5 432 L 452 434.5 L 450.5 435 L 446.5 433 L 446.5 432 Z " /><path fill="rgb(167,174,177)" stroke="rgb(167,174,177)" stroke-width="1" opacity="1" d="M 191.5 433 L 193 433.5 L 185.5 437 L 185.5 436 L 191.5 433 Z " /><path fill="rgb(167,174,177)" stroke="rgb(167,174,177)" stroke-width="1" opacity="1" d="M 455.5 436 L 472 444.5 L 470.5 444 L 455.5 437 L 455.5 436 Z " /><path fill="rgb(167,174,177)" stroke="rgb(167,174,177)" stroke-width="1" opacity="1" d="M 178.5 439 L 180 439.5 L 173.5 443 L 174.5 441 L 178.5 439 Z " /><path fill="rgb(167,174,177)" stroke="rgb(167,174,177)" stroke-width="1" opacity="1" d="M 169.5 444 L 168.5 446 L 164.5 448 L 165.5 446 L 169.5 444 Z " /><path fill="rgb(167,174,177)" stroke="rgb(167,174,177)" stroke-width="1" opacity="1" d="M 475.5 446 L 484 451.5 L 482.5 451 L 476.5 448 L 475.5 446 Z " /><path fill="rgb(167,174,177)" stroke="rgb(167,174,177)" stroke-width="1" opacity="1" d="M 162.5 448 L 161.5 450 L 159.5 451 L 160.5 449 L 162.5 448 Z " /><path fill="rgb(167,174,177)" stroke="rgb(167,174,177)" stroke-width="1" opacity="1" d="M 157.5 451 L 156.5 453 L 144.5 461 L 146.5 458 L 157.5 451 Z " /><path fill="rgb(167,174,177)" stroke="rgb(167,174,177)" stroke-width="1" opacity="1" d="M 485.5 452 L 496 459.5 L 493.5 458 L 486.5 454 L 485.5 452 Z " /><path fill="rgb(167,174,177)" stroke="rgb(167,174,177)" stroke-width="1" opacity="1" d="M 497.5 460 L 508 468.5 L 504.5 466 Q 499 463.9 497.5 460 Z " /><path fill="rgb(167,174,177)" stroke="rgb(167,174,177)" stroke-width="1" opacity="1" d="M 142.5 461 L 140.5 464 L 136.5 467 L 139.5 463 L 142.5 461 Z " /><path fill="rgb(167,174,177)" stroke="rgb(167,174,177)" stroke-width="1" opacity="1" d="M 134.5 467 L 131.5 471 L 134.5 467 Z " /><path fill="rgb(167,174,177)" stroke="rgb(167,174,177)" stroke-width="1" opacity="1" d="M 509.5 469 L 532 490.5 L 546 508.5 L 543 506.5 Q 531.8 489.2 516.5 476 L 509.5 469 Z " /><path fill="rgb(167,174,177)" stroke="rgb(167,174,177)" stroke-width="1" opacity="1" d="M 129.5 471 L 120.5 481 L 129.5 471 Z " /><path fill="rgb(167,174,177)" stroke="rgb(167,174,177)" stroke-width="1" opacity="1" d="M 118.5 481 L 115.5 485 L 118.5 481 Z " /><path fill="rgb(167,174,177)" stroke="rgb(167,174,177)" stroke-width="1" opacity="1" d="M 114.5 486 L 107 494.5 L 102.5 500 L 106 495.5 L 114.5 486 Z " /><path fill="rgb(167,174,177)" stroke="rgb(167,174,177)" stroke-width="1" opacity="1" d="M 101.5 501 L 99 504.5 L 91.5 516 L 92 514.5 L 101.5 501 Z " /><path fill="rgb(167,174,177)" stroke="rgb(167,174,177)" stroke-width="1" opacity="1" d="M 546.5 510 L 547.5 512 L 546.5 510 Z " /><path fill="rgb(167,174,177)" stroke="rgb(167,174,177)" stroke-width="1" opacity="1" d="M 548.5 513 L 551 516.5 L 549 515.5 L 548.5 513 Z " /><path fill="rgb(167,174,177)" stroke="rgb(167,174,177)" stroke-width="1" opacity="1" d="M 90.5 517 L 90 518.5 L 87.5 523 L 88 521.5 L 90.5 517 Z " /><path fill="rgb(167,174,177)" stroke="rgb(167,174,177)" stroke-width="1" opacity="1" d="M 551.5 518 L 557 527.5 L 555 526.5 L 551.5 518 Z " /><path fill="rgb(167,174,177)" stroke="rgb(167,174,177)" stroke-width="1" opacity="1" d="M 557.5 529 L 561 536.5 L 560 536.5 L 557.5 529 Z " /><path fill="rgb(167,174,177)" stroke="rgb(167,174,177)" stroke-width="1" opacity="1" d="M 83.5 530 L 84 531.5 L 80.5 538 L 80 536.5 L 83.5 530 Z " /><path fill="rgb(167,174,177)" stroke="rgb(167,174,177)" stroke-width="1" opacity="1" d="M 561.5 538 L 564 544.5 L 563 544.5 L 561.5 538 Z " /><path fill="rgb(167,174,177)" stroke="rgb(167,174,177)" stroke-width="1" opacity="1" d="M 78.5 542 L 79 543.5 L 76.5 550 L 76 547.5 L 78.5 542 Z " /><path fill="rgb(167,174,177)" stroke="rgb(167,174,177)" stroke-width="1" opacity="1" d="M 564.5 546 L 567 554.5 L 566 554.5 L 564.5 546 Z " /><path fill="rgb(167,174,177)" stroke="rgb(167,174,177)" stroke-width="1" opacity="1" d="M 74.5 554 L 75 556.5 L 74 556.5 L 74.5 554 Z " /><path fill="rgb(167,174,177)" stroke="rgb(167,174,177)" stroke-width="1" opacity="1" d="M 567.5 556 L 568 559.5 L 567 559.5 L 567.5 556 Z " /><path fill="rgb(167,174,177)" stroke="rgb(167,174,177)" stroke-width="1" opacity="1" d="M 73.5 558 L 74 561.5 L 72.5 567 L 72 562.5 L 73.5 558 Z " /><path fill="rgb(167,174,177)" stroke="rgb(167,174,177)" stroke-width="1" opacity="1" d="M 568.5 561 L 569 564.5 L 568 564.5 L 568.5 561 Z " /><path fill="rgb(167,174,177)" stroke="rgb(167,174,177)" stroke-width="1" opacity="1" d="M 569.5 566 L 570 570.5 L 569 570.5 L 569.5 566 Z " /><path fill="rgb(167,174,177)" stroke="rgb(167,174,177)" stroke-width="1" opacity="1" d="M 71.5 568 L 72 573.5 L 71 573.5 L 71.5 568 Z " /><path fill="rgb(167,174,177)" stroke="rgb(167,174,177)" stroke-width="1" opacity="1" d="M 570.5 572 L 571 580 L 70.5 580 L 70 576.5 L 71 576.5 L 71.5 579 L 570 579 L 570.5 572 Z " /><path fill="rgb(174,180,183)" stroke="rgb(174,180,183)" stroke-width="1" opacity="1" d="M 307.5 130 L 312.5 131 L 330.5 131 L 335.5 130 L 335.5 131 L 333 131.5 L 339.5 132 L 342.5 131 L 342.5 132 L 341 132.5 L 344.5 133 L 347.5 132 L 347.5 133 L 346 133.5 L 348.5 134 L 351.5 133 L 351.5 134 L 350 134.5 L 352.5 135 L 354.5 134 L 354.5 136 L 357.5 135 L 357.5 137 L 360.5 136 L 360.5 138 L 363.5 137 L 363.5 139 L 365.5 138 L 366.5 140 L 368.5 139 L 368.5 141 L 370.5 140 L 370.5 142 L 372.5 141 L 372.5 143 L 374.5 142 L 374.5 144 L 376.5 143 L 376.5 145 L 378.5 144 L 378.5 146 L 380.5 145 L 382.5 148 L 384 147.5 L 383.5 149 L 385.5 150 L 387 149.5 L 386.5 151 L 388.5 152 L 390 151.5 L 389.5 153 L 391.5 154 Q 392.8 151.8 394 154.5 L 393.5 156 L 395.5 157 L 396.5 156 L 400 159.5 L 404.5 165 Q 406.3 162.3 408 166.5 L 407 167.5 L 412 172.5 L 412.5 174 Q 414.2 171.2 416 175.5 Q 413.8 176.8 416.5 178 L 419 179.5 L 419 181.5 L 419.5 183 Q 420.8 180.8 422 183.5 L 421.5 185 L 424 186.5 L 423.5 188 L 426 189.5 L 425 191.5 L 427 191.5 L 426.5 193 L 429 194.5 L 428 196.5 L 430 196.5 L 429 198.5 L 431 198.5 L 430 200.5 L 432 200.5 L 431 202.5 L 433 202.5 L 432 204.5 L 434 204.5 L 433 206.5 L 435 206.5 L 434 209.5 L 436 209.5 L 435 211.5 L 437 211.5 L 436 214.5 L 438 214.5 L 437 217 L 439 217.5 L 438 220.5 L 439 220.5 L 439.5 219 L 440 220.5 L 439 223.5 L 441 223.5 L 440 226.5 L 442 226.5 L 441 230.5 L 443 230.5 L 442 235.5 L 443 235.5 L 443.5 234 L 444 236.5 L 443 240.5 L 445 240.5 L 444 248.5 L 445 248.5 L 445.5 246 L 446 250.5 L 445 251.5 L 445 278.5 L 446 282.5 L 445 282.5 L 444.5 280 L 444 286.5 L 445 289.5 L 444 289.5 L 443.5 288 L 443 291.5 L 444 294.5 L 443 294.5 L 442.5 293 L 442 296.5 L 443 298.5 L 441 298.5 L 442 302.5 L 440 302.5 L 441 306.5 L 440 306.5 L 439.5 305 L 439 307.5 L 440 309.5 L 438 309.5 L 439 312.5 L 437 312.5 L 438 314.5 L 436 314.5 L 437 317.5 L 435 317.5 L 436 319.5 L 434 320 L 435 322.5 L 433 322.5 L 434 324.5 L 432 324.5 L 433 326.5 L 431 326.5 L 432 328.5 L 430 328.5 L 431 330.5 L 429 330.5 L 430 332.5 L 428 332.5 L 429 334.5 L 427 334.5 L 426 336.5 L 426.5 338 L 425 338.5 L 425.5 340 L 424 339.5 L 423 341.5 L 423.5 343 L 422 342.5 L 421 344.5 L 421.5 346 L 420 345.5 L 419 347.5 Q 421.3 348.7 418.5 350 L 417 349.5 L 416 351.5 Q 418.8 353.2 414.5 355 L 413 354.5 L 410 358.5 L 411 359.5 L 401.5 369 Q 400 366.5 398.5 370 L 397 370.5 Q 399.7 372.3 395.5 374 L 393.5 374 L 392 374.5 Q 394.3 375.8 391.5 377 L 390 376.5 L 388.5 379 L 386.5 379 L 385 379.5 L 385.5 381 L 384 380.5 L 382.5 383 L 380.5 382 L 380.5 384 L 378.5 383 L 378.5 385 L 377 384.5 L 376.5 386 L 375 385.5 L 374.5 387 L 373 386.5 L 372.5 388 L 371 387.5 L 370.5 389 L 368.5 388 L 368.5 390 L 366.5 389 L 366.5 391 L 363.5 390 L 363.5 392 L 361.5 391 L 361.5 393 L 358.5 392 L 358.5 394 L 355.5 393 L 355.5 395 L 351.5 394 L 351.5 396 L 347.5 395 L 347.5 397 L 342.5 396 L 342.5 397 L 344 397.5 L 341.5 398 Q 340.3 395.8 335.5 397 L 335.5 398 L 338 398.5 L 333.5 399 L 332.5 398 L 310.5 398 L 306.5 399 L 306.5 398 L 308 397.5 L 302.5 397 L 300.5 398 L 300.5 396 L 295.5 397 L 295.5 395 L 291.5 396 L 291.5 394 L 287.5 395 L 287.5 394 L 289 393.5 L 286.5 393 L 284.5 394 L 284.5 392 L 282.5 393 L 282 391 L 279.5 392 L 279.5 390 L 276.5 391 L 276.5 389 L 274.5 390 L 274.5 388 L 272.5 389 L 272.5 387 L 270.5 388 L 270.5 386 L 268.5 387 L 267.5 385 L 266 385.5 L 266.5 384 L 264.5 385 L 264.5 383 L 262.5 384 L 262.5 382 L 260.5 381 L 259 381.5 L 259.5 380 L 257.5 381 L 255.5 378 Q 254.3 380.3 253 377.5 L 253.5 376 L 251.5 375 Q 250.3 377.3 249 374.5 L 249.5 373 L 247.5 372 L 246.5 373 L 243 369.5 L 238.5 364 Q 237.3 366.3 236 363.5 L 237 362.5 L 232 357.5 L 231.5 356 L 230.5 357 L 227 353.5 L 227 351.5 L 226.5 350 Q 225.3 352.3 224 349.5 L 224 347.5 L 223.5 346 Q 222.3 348.3 221 345.5 L 221.5 344 L 219 342.5 L 220 340.5 L 218 340.5 L 218 338.5 L 217.5 337 L 216 337.5 L 217 335.5 L 215 335.5 L 215.5 334 L 214 333.5 L 214 331.5 L 213.5 330 L 212 330.5 L 213 328.5 L 211 328.5 L 212 326.5 L 210 326.5 L 211 324 L 209 323.5 L 210 321.5 L 208 321.5 L 209 319.5 L 207 319.5 L 208 317.5 L 206 317.5 L 207 314.5 L 205 314.5 L 206 311.5 L 204 311.5 L 205 308.5 L 203 308.5 L 204 305.5 L 202 305.5 L 203 301.5 L 201 301.5 L 202 297.5 L 200 297.5 L 201 292.5 L 200 292.5 L 199.5 294 L 199 291.5 L 200 286.5 L 199 286.5 L 198.5 288 L 198 285.5 Q 200.5 284 199 278.5 L 198 278.5 L 197.5 281 L 197 276.5 L 198 275.5 L 198 254.5 Q 195.8 253.3 197 248.5 L 198 248.5 L 198.5 251 L 199 244.5 L 198 241.5 L 199 241.5 L 199.5 243 L 200 238.5 L 199 235.5 L 200 235.5 L 200.5 237 L 201 233.5 L 200 231.5 L 202 231.5 L 201 227.5 L 203 227.5 L 202 223.5 L 204 223.5 L 203 220.5 L 205 220.5 L 204 217.5 L 206 217.5 L 205 214.5 L 207 214.5 L 206 212.5 L 208 212.5 L 207 209.5 L 209 209.5 L 208 207.5 L 210 207.5 L 209 205.5 L 211 204.5 L 210.5 203 L 212 202.5 L 211 200.5 L 214 198.5 L 213.5 197 L 215 196.5 L 214.5 195 L 216 195.5 L 215 193.5 L 217 193.5 L 216 191.5 L 219 189.5 L 218.5 188 L 220 188.5 L 221 186.5 L 220.5 185 L 222 185.5 L 223 183.5 Q 220.8 182.2 223.5 181 L 226 179.5 Q 223.8 178.2 226.5 177 L 228 177.5 L 229 175.5 L 228 174.5 L 231.5 171 L 233 171.5 L 241.5 162 L 243 161.5 L 242 160.5 L 245.5 157 Q 246.8 159.3 248 156.5 L 249.5 154 Q 250.8 156.3 252 153.5 L 253.5 151 L 255 151.5 L 256.5 149 L 258 149.5 L 259.5 147 L 261.5 148 L 261.5 146 L 263 146.5 L 264.5 144 L 266.5 145 L 266.5 143 L 268.5 144 L 268.5 142 L 270.5 143 L 270.5 141 L 272.5 142 L 272.5 140 L 275 141 L 275.5 139 L 277.5 140 L 277.5 138 L 279.5 139 L 279.5 137 L 282.5 138 L 282.5 136 L 285.5 137 L 285.5 135 L 288.5 136 L 288.5 134 L 292.5 135 L 292.5 133 L 296.5 134 L 296.5 132 L 301.5 133 L 301.5 131 L 309.5 132 L 309.5 131 Q 306.5 131.5 307.5 130 Z " /><path fill="rgb(174,180,183)" stroke="rgb(174,180,183)" stroke-width="1" opacity="1" d="M 446.5 257 L 447 271.5 L 446 271.5 L 446.5 257 Z " /><path fill="rgb(174,180,183)" stroke="rgb(174,180,183)" stroke-width="1" opacity="1" d="M 317.5 399 L 326 399.5 L 317.5 400 L 317.5 399 Z " /><path fill="rgb(174,180,183)" stroke="rgb(174,180,183)" stroke-width="1" opacity="1" d="M 304.5 407 L 337 407.5 L 328 408.5 L 345.5 409 Q 346.8 406.8 351.5 408 L 351.5 409 L 348 409.5 L 356.5 410 L 361.5 409 L 361.5 410 L 359 410.5 L 364.5 411 L 369.5 410 L 369.5 411 L 367 411.5 L 372.5 412 L 375.5 411 L 375.5 412 L 374 412.5 L 378.5 413 L 381.5 412 L 381.5 413 L 380 413.5 L 383.5 414 L 386.5 413 L 386.5 414 L 385 414.5 L 388.5 415 L 391.5 414 L 391.5 415 L 390 415.5 L 393.5 416 L 395.5 415 L 395.5 417 L 400.5 416 L 400.5 417 L 399 417.5 L 402.5 418 L 404.5 417 L 404.5 418 L 403 418.5 L 406.5 419 L 408 418.5 L 407.5 420 L 411.5 419 L 411.5 421 L 415.5 420 L 415.5 421 L 414 421.5 L 416.5 422 L 418.5 421 L 418.5 423 L 421.5 422 L 421.5 424 L 424.5 423 L 424.5 425 L 427.5 424 L 427.5 426 L 430.5 425 L 430.5 427 L 433.5 426 L 433.5 428 L 436.5 427 L 436.5 429 L 438.5 428 L 438.5 430 L 441.5 429 L 441.5 431 L 443.5 430 L 443.5 432 L 446.5 431 L 446.5 433 L 448.5 432 L 448.5 434 L 450.5 433 L 450.5 435 L 452.5 434 L 453.5 436 L 455.5 435 L 455.5 437 L 457.5 436 L 457.5 438 L 459.5 437 L 459.5 439 L 461.5 438 L 461.5 440 L 463.5 439 L 463.5 441 L 465.5 440 L 465.5 442 L 467.5 441 L 467.5 443 L 469.5 442 L 469.5 444 L 471.5 443 L 473.5 446 L 475 445.5 L 475.5 447 L 477 446.5 L 476.5 448 L 478.5 447 L 478.5 449 L 480.5 450 L 482 449.5 L 481.5 451 L 483.5 450 L 485.5 453 L 487 452.5 L 486.5 454 L 488.5 455 L 490 454.5 L 489.5 456 L 491.5 457 L 493 456.5 L 492.5 458 L 494.5 459 Q 495.8 456.8 497 459.5 L 497.5 461 Q 498.7 458.8 500 461.5 L 499.5 463 L 501.5 464 Q 502.8 461.8 504 464.5 L 503.5 466 L 505.5 467 Q 507.2 464.3 509 468.5 L 511.5 472 L 512.5 471 L 516 474.5 L 515.5 476 L 522.5 482 L 523.5 481 L 527 484.5 L 526 485.5 L 531 490.5 L 531.5 492 L 532.5 491 L 536 494.5 Q 533.5 496 537 497.5 L 537.5 499 Q 538.8 496.8 540 499.5 L 540 501.5 L 540.5 503 Q 541.8 500.8 543 503.5 L 543 505.5 L 543.5 507 Q 544.8 504.7 546 507.5 L 545.5 509 L 548 510.5 L 547.5 512 L 550 513.5 L 549 515.5 L 551 515.5 L 550.5 517 L 553 518.5 L 552 520.5 L 554 520.5 L 553 522.5 L 555 522.5 L 554 524.5 L 556 524.5 L 555 526.5 L 557 526.5 L 556.5 528 L 558 528.5 L 557 530.5 L 559 530.5 L 558 532.5 L 560 532.5 L 559 534.5 L 561 534.5 L 560 536.5 L 562 536.5 L 561 539.5 L 563 539.5 L 562 542.5 L 564 542.5 L 563 544.5 L 565 544.5 L 564 548.5 L 565 548.5 L 565.5 547 L 566 548.5 L 565 551.5 L 567 551.5 L 566 554.5 L 568 554.5 L 567 559.5 L 568 559.5 L 568.5 558 L 569 560.5 L 568 564.5 L 569 564.5 L 569.5 563 L 570 565.5 L 569 570.5 L 570 570.5 L 570.5 569 L 571 571.5 L 570 572.5 L 570 579 L 71.5 579 L 71 576.5 L 70 571.5 L 71 571.5 L 71.5 574 L 72 568.5 L 71 565.5 L 72 565.5 L 72.5 567 L 73 562.5 L 72 560.5 L 73 560.5 L 73.5 562 L 74 558.5 L 73 556.5 L 75 556.5 L 74 552.5 L 76 552.5 L 75 549.5 L 77 549.5 L 76 546.5 L 78 546.5 L 77 543.5 L 79 543.5 L 78 540.5 L 80 540.5 L 79 538.5 L 81 538 L 80 535.5 L 82 535.5 L 81 533.5 L 83 533.5 L 82 531.5 L 84 531.5 L 83 529.5 L 85 528.5 L 84.5 527 L 86 526.5 L 85.5 525 L 87 524.5 L 86.5 523 L 88 522.5 L 87.5 521 L 89 521.5 L 88 519.5 L 90 519.5 L 89 517.5 L 92 515.5 L 91.5 514 L 93 514.5 L 94 512.5 L 93.5 511 L 95 511.5 L 96 509.5 L 95.5 508 L 97 508.5 L 98 506.5 L 97.5 505 L 99 505.5 L 101 502.5 Q 98.8 501.2 101.5 500 L 104 498.5 Q 101.2 496.8 105.5 495 L 107 495.5 L 109 492.5 L 108 491.5 L 114.5 485 L 119 481.5 L 126.5 473 Q 128.2 475.8 130 471.5 L 132.5 468 Q 133.8 470.3 135 467.5 L 137.5 464 L 139.5 464 L 141 463.5 Q 138.8 462.3 141.5 461 L 143 461.5 L 144.5 459 L 146.5 459 L 148 458.5 Q 145.8 457.3 148.5 456 L 150.5 457 L 151.5 454 L 153.5 455 L 154.5 452 L 156.5 453 L 156.5 451 L 158 451.5 L 159.5 449 L 161.5 450 L 161.5 448 L 163 448.5 L 164.5 446 L 166.5 447 L 166.5 445 L 168.5 446 L 168.5 444 L 170 444.5 L 170.5 443 L 172 443.5 L 173.5 441 L 175.5 442 L 175.5 440 L 177.5 441 L 177.5 439 L 180 440 L 180.5 438 L 182 438.5 L 182.5 437 L 184 437.5 L 184.5 436 L 186.5 437 L 186.5 435 L 188.5 436 L 188.5 434 L 190.5 435 L 190.5 433 L 192.5 434 L 192.5 432 L 195.5 433 L 195.5 431 L 197.5 432 L 197.5 430 L 200.5 431 L 200.5 429 L 202.5 430 L 202.5 428 L 205.5 429 L 205.5 427 L 208.5 428 L 208.5 426 L 210.5 427 L 210.5 425 L 213.5 426 L 213.5 424 L 216.5 425 L 216.5 423 L 219.5 424 L 219.5 422 L 223.5 423 L 223.5 421 L 226.5 422 L 226.5 420 L 230.5 421 L 230.5 420 L 229 419.5 L 230.5 419 L 233.5 420 L 233.5 418 L 237.5 419 L 237.5 417 L 241.5 418 L 241.5 416 L 245.5 417 L 245.5 415 L 250.5 416 L 250.5 415 L 249 414.5 L 251.5 414 L 255.5 415 L 255.5 414 L 254 413.5 L 256.5 413 L 260.5 414 L 260.5 412 L 267.5 413 L 267.5 412 L 266 411.5 L 268.5 411 L 273.5 412 L 273.5 411 L 272 410.5 L 275.5 410 Q 276.7 412.3 281.5 411 L 281.5 410 L 280 409.5 L 283.5 409 L 284.5 410 L 292.5 410 L 292.5 409 L 290 408.5 L 294.5 408 L 295.5 409 L 313.5 409 L 313.5 408 L 304.5 408 L 304.5 407 Z " /><path fill="rgb(174,180,183)" stroke="rgb(174,180,183)" stroke-width="1" opacity="1" d="M 571.5 577 L 572 579.5 L 571 579.5 L 571.5 577 Z " /></svg>